<svg width="232" height="232" viewBox="0 0 232 232" fill="none" xmlns="http://www.w3.org/2000/svg">
<circle cx="116" cy="116" r="110" fill="url(#paint0_linear_37_522)" stroke="black" stroke-width="12"/>
<path d="M116 141.105C109.452 141.105 103.887 138.818 99.3036 134.243C94.7202 129.669 92.4286 124.114 92.4286 117.579V70.5263C92.4286 63.9912 94.7202 58.4364 99.3036 53.8618C103.887 49.2873 109.452 47 116 47C122.548 47 128.113 49.2873 132.696 53.8618C137.28 58.4364 139.571 63.9912 139.571 70.5263V117.579C139.571 124.114 137.28 129.669 132.696 134.243C128.113 138.818 122.548 141.105 116 141.105ZM108.143 196V171.886C94.5238 170.056 83.2619 163.978 74.3571 153.653C65.4524 143.327 61 131.303 61 117.579H76.7143C76.7143 128.427 80.546 137.676 88.2093 145.324C95.8726 152.973 105.136 156.795 116 156.789C126.864 156.784 136.13 152.96 143.799 145.316C151.467 137.673 155.296 128.427 155.286 117.579H171C171 131.303 166.548 143.327 157.643 153.653C148.738 163.978 137.476 170.056 123.857 171.886V196H108.143Z" fill="black"/>
<defs>
<linearGradient id="paint0_linear_37_522" x1="116" y1="0" x2="116" y2="232" gradientUnits="userSpaceOnUse">
<stop stop-color="#FA0A5A"/>
<stop offset="1" stop-color="#950837"/>
</linearGradient>
</defs>
</svg>
